<svg xmlns="http://www.w3.org/2000/svg" width="38.629" height="44.292" viewBox="0 0 38.629 44.292"><path d="M38.03,44.293H8.845a.59.59,0,0,1-.595-.6V8.668a.588.588,0,0,1,.595-.595H38.03a.588.588,0,0,1,.595.595V43.7A.59.59,0,0,1,38.03,44.293ZM9.44,9.263h0V43.1H37.435V9.263ZM2.731,44.293a.62.62,0,0,1-.429-.175L.177,41.981a.581.581,0,0,1,0-.836.6.6,0,0,1,.847,0L2.14,42.259V10.1L1.028,11.219a.6.6,0,0,1-.851,0,.582.582,0,0,1,0-.84L2.3,8.251a.611.611,0,0,1,.429-.178.576.576,0,0,1,.418.178l2.136,2.125a.608.608,0,0,1,0,.846.62.62,0,0,1-.429.175.585.585,0,0,1-.418-.175L3.331,10.1V42.259l1.116-1.116a.568.568,0,0,1,.414-.173.594.594,0,0,1,.429,1.016l-2.14,2.133A.585.585,0,0,1,2.731,44.293ZM35.9,5.453a.576.576,0,0,1-.417-.175.6.6,0,0,1-.177-.422.587.587,0,0,1,.181-.417L36.6,3.323H10.287L11.4,4.437a.609.609,0,0,1,0,.842.6.6,0,0,1-.847,0L8.428,3.146a.581.581,0,0,1,0-.839L10.553.179A.594.594,0,0,1,10.978,0,.611.611,0,0,1,11.4.175a.607.607,0,0,1,0,.843L10.287,2.134H36.6L35.491,1.018A.6.6,0,0,1,35.31.6a.591.591,0,0,1,.181-.421A.575.575,0,0,1,35.9,0a.588.588,0,0,1,.418.174L38.459,2.3a.607.607,0,0,1,0,.843l-2.14,2.133A.558.558,0,0,1,35.9,5.453Z" transform="translate(0 -0.001)" fill="#3c3232"/></svg>