<svg xmlns="http://www.w3.org/2000/svg" width="43.705" height="40.287" viewBox="0 0 43.705 40.287"><path d="M5021.945-16788.012a12.4,12.4,0,0,1-5.068-1.076,12.531,12.531,0,0,1-4.067-2.924l-.258-.277-.257.277a12.538,12.538,0,0,1-4.068,2.924,12.4,12.4,0,0,1-5.068,1.076,12.474,12.474,0,0,1-12.459-12.459,12.314,12.314,0,0,1,2.7-7.734,12.56,12.56,0,0,1,6.774-4.357l.333-.084-.08-.338a12.6,12.6,0,0,1-.334-2.855,12.474,12.474,0,0,1,12.459-12.459,12.474,12.474,0,0,1,12.459,12.459,12.632,12.632,0,0,1-.333,2.855l-.081.338.334.084a12.564,12.564,0,0,1,6.774,4.357,12.314,12.314,0,0,1,2.7,7.734A12.474,12.474,0,0,1,5021.945-16788.012Zm2.348-23.66-.109.287a12.474,12.474,0,0,1-8.646,7.637l-.334.084.081.338a12.529,12.529,0,0,1,.333,2.855,12.357,12.357,0,0,1-2.26,7.143l-.16.227.182.207a11.465,11.465,0,0,0,8.565,3.873,11.462,11.462,0,0,0,11.45-11.449,11.446,11.446,0,0,0-2.513-7.143,11.513,11.513,0,0,0-6.293-3.986l-.3-.072Zm-23.482,0-.3.072a11.532,11.532,0,0,0-6.289,3.986,11.445,11.445,0,0,0-2.513,7.143,11.462,11.462,0,0,0,11.45,11.449,11.466,11.466,0,0,0,8.565-3.873l.182-.207-.161-.227a12.36,12.36,0,0,1-2.259-7.143,12.606,12.606,0,0,1,.333-2.855l.08-.338-.337-.084a12.478,12.478,0,0,1-8.642-7.641Zm10.094,8.186h0l-.072.295a11.551,11.551,0,0,0-.338,2.721,11.405,11.405,0,0,0,1.761,6.078l.3.469.3-.469a11.405,11.405,0,0,0,1.761-6.078,11.576,11.576,0,0,0-.338-2.721l-.072-.295-.3.029a11.969,11.969,0,0,1-1.345.076,11.876,11.876,0,0,1-1.341-.076Zm1.647-3.531h0l-.3.473a11.45,11.45,0,0,0-.862,1.627l-.19.447.486.037c.354.027.607.043.861.043.228,0,.453-.01.862-.043l.486-.037-.19-.447a10.641,10.641,0,0,0-.861-1.627l-.3-.473Zm9.393-4.9a11.471,11.471,0,0,0-8.565,3.873l-.182.207.16.229a12.389,12.389,0,0,1,1.432,2.686l.11.289.3-.072a11.5,11.5,0,0,0,7.9-6.682l.19-.447-.524-.043-.105-.006-.05,0C5022.4-16811.908,5022.174-16811.922,5021.945-16811.922Zm-18.786,0c-.226,0-.445.014-.657.029l-.051,0-.111.006-.528.043.19.447a11.505,11.505,0,0,0,7.9,6.682l.3.072.11-.289a12.483,12.483,0,0,1,1.432-2.686l.161-.229-.182-.207A11.472,11.472,0,0,0,5003.159-16811.922Zm0-1.008a12.4,12.4,0,0,1,5.068,1.076,12.564,12.564,0,0,1,4.068,2.922l.257.279.258-.279a12.557,12.557,0,0,1,4.067-2.922,12.4,12.4,0,0,1,5.068-1.076,12.563,12.563,0,0,1,1.343.076l.3.029.072-.3a11.548,11.548,0,0,0,.338-2.719,11.466,11.466,0,0,0-11.45-11.455,11.465,11.465,0,0,0-11.45,11.455,11.523,11.523,0,0,0,.338,2.719l.072.3.3-.029A12.561,12.561,0,0,1,5003.159-16812.93Z" transform="translate(-4990.7 16828.299)" fill="#3c3232"/></svg>