<svg xmlns="http://www.w3.org/2000/svg" width="205.956" height="53.596" viewBox="0 0 205.956 53.596">
  <g id="Group_25" data-name="Group 25" transform="translate(-55.22 -50.202)">
    <g id="Group_4" data-name="Group 4" transform="translate(3863.165 2279.304)">
      <path id="Path_17" data-name="Path 17" d="M287.286,26.218h-5.629v8.368h5.629a6.15,6.15,0,0,0,3.829-1.149,3.711,3.711,0,0,0,1.342-3.034,3.709,3.709,0,0,0-1.346-3.029,6.148,6.148,0,0,0-3.825-1.155m-5.629,9.2v7.078h-.851V25.39h6.456a7.054,7.054,0,0,1,4.435,1.385,4.479,4.479,0,0,1,1.612,3.627,4.5,4.5,0,0,1-1.455,3.5,6.486,6.486,0,0,1-3.8,1.473l6.469,7.121h-1.084l-6.4-7.078Zm-15.97,6.952V25.39h11.2v.828H266.539v7.261h9.63v.828h-9.63v7.357h10.569v.828h-11.42Zm-5.87-8.039a3.86,3.86,0,0,0,1.85-3.589,3.859,3.859,0,0,0-1.841-3.588,8.754,8.754,0,0,0-4.437-.933h-4.521V35.26h4.521a8.758,8.758,0,0,0,4.429-.933m-9.8,8.039V25.39h5.349a9.021,9.021,0,0,1,5.334,1.345,4.666,4.666,0,0,1,1.822,4,4.617,4.617,0,0,1-2.175,4.253,9.636,9.636,0,0,1-4.98,1.1h-4.5v6.4h-.852ZM239.162,26.414l-.056.116-4.565,9.957h9.242l-4.564-9.954Zm1.455,2.87q.217.483.448.977Zm-6.455,8.032-2.383,5.176h-.924q3.937-8.55,7.867-17.1h.857q3.925,8.549,7.843,17.1H246.5l-2.384-5.176Zm-5.954-2.988a3.86,3.86,0,0,0,1.85-3.589,3.858,3.858,0,0,0-1.842-3.588,8.752,8.752,0,0,0-4.437-.933h-4.522V35.26h4.522a8.758,8.758,0,0,0,4.429-.933m-9.8,8.039V25.39h5.35a9.021,9.021,0,0,1,5.333,1.345,4.667,4.667,0,0,1,1.821,4,4.616,4.616,0,0,1-2.175,4.253,9.637,9.637,0,0,1-4.979,1.1h-4.5v6.4h-.852Z" transform="translate(-3896.515 -2236.245)" fill="#fff" fill-rule="evenodd"/>
      <path id="Path_18" data-name="Path 18" d="M129.808,25.381a1.631,1.631,0,1,1,0,3.262,5.584,5.584,0,0,0-5.584,5.584v6.609a1.631,1.631,0,0,1-3.262,0V34.227a8.845,8.845,0,0,1,8.846-8.846" transform="translate(-3853.356 -2236.241)" fill="#fff"/>
      <path id="Path_19" data-name="Path 19" d="M153.914,40.857a1.631,1.631,0,1,1-3.262,0V28.69h-5.043a1.631,1.631,0,0,1,0-3.262h13.347a1.631,1.631,0,0,1,0,3.262h-5.043Z" transform="translate(-3863.55 -2236.262)" fill="#fff"/>
      <path id="Path_20" data-name="Path 20" d="M97.806,30.159a5.342,5.342,0,1,0,1.565,3.778,5.325,5.325,0,0,0-1.565-3.778m-3.778-4.778a8.556,8.556,0,1,1-6.049,2.506,8.53,8.53,0,0,1,6.049-2.506" transform="translate(-3837.637 -2236.241)" fill="#fff"/>
      <path id="Path_21" data-name="Path 21" d="M187.622,30.159a5.342,5.342,0,1,0,1.565,3.778,5.323,5.323,0,0,0-1.565-3.778m-3.778-4.778a8.555,8.555,0,1,1-6.05,2.506,8.529,8.529,0,0,1,6.05-2.506" transform="translate(-3877.418 -2236.241)" fill="#fff"/>
    </g>
    <path id="Path_22" data-name="Path 22" d="M13.412,28.6A14.328,14.328,0,0,1,0,15.206H9.024a4.4,4.4,0,0,1,4.388,4.389Zm1.771,0V19.594a4.4,4.4,0,0,1,4.389-4.388H28.6v9.006A4.4,4.4,0,0,1,24.208,28.6ZM28.6,13.394H19.572a4.4,4.4,0,0,1-4.387-4.388V0A14.33,14.33,0,0,1,28.6,13.394M43.78,30.412A14.328,14.328,0,0,1,30.367,43.8V34.8a4.4,4.4,0,0,1,4.389-4.387Zm0-1.812H34.756a4.4,4.4,0,0,1-4.387-4.388V15.206A14.329,14.329,0,0,1,43.78,28.6m-28.6,11.6A14.329,14.329,0,0,0,28.6,53.6V34.8a4.4,4.4,0,0,0-4.389-4.387H15.183ZM0,13.394A14.328,14.328,0,0,1,13.412,0V9.006a4.4,4.4,0,0,1-4.388,4.388Z" transform="translate(55.22 50.202)" fill="#8ca032" fill-rule="evenodd"/>
  </g>
</svg>
